<svg viewBox="0 0 900 340" xmlns="http://www.w3.org/2000/svg" role="img">
  <rect width="900" height="340" fill="#F8FAFC" rx="12"/>
  <!-- Before -->
  <rect x="20" y="20" width="410" height="300" rx="14" fill="#FEF2F2" stroke="#FECACA"/>
  <text x="225" y="50" text-anchor="middle" font-family="DM Sans,sans-serif" font-size="13" font-weight="700" fill="#B91C1C">CURRENT STATE</text>
  <g font-family="DM Sans,sans-serif" font-size="12" text-anchor="middle">
    <rect x="120" y="70" width="210" height="36" rx="8" fill="#DC2626"/><text x="225" y="93" fill="#fff">Customer</text>
    <text x="225" y="122" fill="#DC2626">↓</text>
    <rect x="120" y="130" width="210" height="36" rx="8" fill="#EF4444"/><text x="225" y="153" fill="#fff">Bank</text>
    <text x="225" y="182" fill="#DC2626">↓</text>
    <rect x="120" y="190" width="210" height="36" rx="8" fill="#F87171"/><text x="225" y="213" fill="#7F1D1D">KYC (from scratch)</text>
    <text x="225" y="242" fill="#DC2626">↓</text>
    <rect x="120" y="250" width="210" height="36" rx="8" fill="#FCA5A5"/><text x="225" y="273" fill="#7F1D1D">Account</text>
  </g>
  <!-- After -->
  <rect x="470" y="20" width="410" height="300" rx="14" fill="#ECFDF5" stroke="#A7F3D0"/>
  <text x="675" y="48" text-anchor="middle" font-family="DM Sans,sans-serif" font-size="13" font-weight="700" fill="#047857">PROPOSED</text>
  <g font-family="DM Sans,sans-serif" font-size="11" text-anchor="middle" fill="#fff">
    <rect x="560" y="58" width="230" height="26" rx="6" fill="#0D9488"/><text x="675" y="76">Customer</text>
    <rect x="560" y="90" width="230" height="26" rx="6" fill="#14B8A6"/><text x="675" y="108">Digital Identity</text>
    <rect x="560" y="122" width="230" height="26" rx="6" fill="#2DD4BF"/><text x="675" y="140" fill="#134E4A">Consent</text>
    <rect x="560" y="154" width="230" height="26" rx="6" fill="#5EEAD4"/><text x="675" y="172" fill="#134E4A">KYC Credentials</text>
    <rect x="560" y="186" width="230" height="26" rx="6" fill="#1A6FBF"/><text x="675" y="204">CDD Validation</text>
    <rect x="560" y="218" width="230" height="26" rx="6" fill="#5B4B8A"/><text x="675" y="236">Trust Network</text>
    <rect x="560" y="250" width="230" height="26" rx="6" fill="#0B1F3A"/><text x="675" y="268">Bank Decision</text>
    <rect x="560" y="282" width="230" height="26" rx="6" fill="#059669"/><text x="675" y="300">Account</text>
  </g>
</svg>