<svg viewBox="0 0 900 360" xmlns="http://www.w3.org/2000/svg" role="img">
  <rect width="900" height="360" fill="#F0FDFA" rx="12"/>
  <text x="450" y="28" text-anchor="middle" font-family="Fraunces,Georgia,serif" font-size="16" fill="#0B1F3A" font-weight="700">Raast Integration — Trust Layer around the Payment Rail</text>
  <g font-family="DM Sans,sans-serif" font-size="12" text-anchor="middle">
    <rect x="40" y="60" width="140" height="50" rx="10" fill="#1A6FBF"/><text x="110" y="90" fill="#fff" font-weight="700">CUSTOMER</text>
    <text x="200" y="90" fill="#00B4D8" font-size="20">→</text>
    <rect x="220" y="60" width="140" height="50" rx="10" fill="#5B4B8A"/><text x="290" y="90" fill="#fff" font-weight="700">BANK / EMI</text>
    <text x="380" y="90" fill="#00B4D8" font-size="20">→</text>
    <rect x="400" y="55" width="180" height="60" rx="10" fill="#0B1F3A" stroke="#00B4D8" stroke-width="2"/><text x="490" y="80" fill="#00B4D8" font-weight="700">PFFTN</text><text x="490" y="98" fill="#94A3B8" font-size="10">TRUST LAYER</text>
    <text x="600" y="90" fill="#00B4D8" font-size="20">→</text>
    <rect x="620" y="60" width="120" height="50" rx="10" fill="#059669"/><text x="680" y="90" fill="#fff" font-weight="700">RAAST</text>
    <text x="760" y="90" fill="#00B4D8" font-size="20">→</text>
    <rect x="780" y="60" width="90" height="50" rx="10" fill="#0D9488"/><text x="825" y="90" fill="#fff" font-weight="700">MCHT</text>
  </g>
  <rect x="100" y="160" width="700" height="160" rx="14" fill="#fff" stroke="#99F6E4"/>
  <text x="450" y="190" text-anchor="middle" font-family="DM Sans,sans-serif" font-size="13" font-weight="700" fill="#0F766E">Merchant side · Raast P2M capabilities</text>
  <g font-family="DM Sans,sans-serif" font-size="12" text-anchor="middle" fill="#fff">
    <rect x="140" y="215" width="140" height="60" rx="10" fill="#0D9488"/><text x="210" y="250">QR</text>
    <rect x="300" y="215" width="140" height="60" rx="10" fill="#14B8A6"/><text x="370" y="250">Raast Alias</text>
    <rect x="460" y="215" width="140" height="60" rx="10" fill="#1A6FBF"/><text x="530" y="250">IBAN</text>
    <rect x="620" y="215" width="140" height="60" rx="10" fill="#5B4B8A"/><text x="690" y="250">Request to Pay</text>
  </g>
</svg>