<svg viewBox="0 0 900 340" xmlns="http://www.w3.org/2000/svg" role="img">
  <rect width="900" height="340" fill="#EEF2FF" rx="12"/>
  <text x="450" y="30" text-anchor="middle" font-family="Fraunces,Georgia,serif" font-size="16" fill="#0B1F3A" font-weight="700">Governance Model (Conceptual Alternatives)</text>
  <circle cx="450" cy="170" r="55" fill="#0B1F3A"/>
  <text x="450" y="165" text-anchor="middle" fill="#00B4D8" font-family="DM Sans,sans-serif" font-size="12" font-weight="700">NETWORK</text>
  <text x="450" y="183" text-anchor="middle" fill="#94A3B8" font-family="DM Sans,sans-serif" font-size="10">GOVERNANCE</text>
  <g font-family="DM Sans,sans-serif" font-size="11" text-anchor="middle">
    <rect x="40" y="70" width="150" height="50" rx="8" fill="#1A6FBF"/><text x="115" y="100" fill="#fff" font-weight="700">SBP Oversight</text>
    <rect x="710" y="70" width="150" height="50" rx="8" fill="#5B4B8A"/><text x="785" y="100" fill="#fff" font-weight="700">Banks / MFBs</text>
    <rect x="40" y="200" width="150" height="50" rx="8" fill="#0D9488"/><text x="115" y="230" fill="#fff" font-weight="700">EMIs / PSOs / PSPs</text>
    <rect x="710" y="200" width="150" height="50" rx="8" fill="#00B4D8"/><text x="785" y="230" fill="#fff" font-weight="700">ID Providers</text>
    <rect x="300" y="280" width="300" height="40" rx="8" fill="#059669"/><text x="450" y="305" fill="#fff" font-weight="700">Gov Verification Entities</text>
  </g>
  <g stroke="#94A3B8" stroke-width="1.5" fill="none" stroke-dasharray="3 3">
    <line x1="190" y1="95" x2="400" y2="150"/><line x1="710" y1="95" x2="500" y2="150"/>
    <line x1="190" y1="225" x2="400" y2="190"/><line x1="710" y1="225" x2="500" y2="190"/>
    <line x1="450" y1="225" x2="450" y2="280"/>
  </g>
</svg>